<svg width="201" height="201" viewBox="0 0 201 201" fill="none" xmlns="http://www.w3.org/2000/svg">
<path d="M153.644 146.904C141.253 161.083 123.737 169.758 104.949 171.023C86.1609 172.287 67.6404 166.035 53.4615 153.644C39.2826 141.253 30.6069 123.737 29.3428 104.949C28.0788 86.1609 34.3299 67.6404 46.7212 53.4615L100.183 100.183L153.644 146.904Z" fill="#F7FBC0"/>
<circle cx="130.001" cy="72" r="40" fill="#F44B0D"/>
<path d="M135.093 53.0539L131.16 52L127.846 64.3696L124.854 53.2022L120.921 54.2561L124.154 66.3216L116.101 58.269L113.222 61.1482L122.055 69.981L111.055 67.0336L110.001 70.9666L122.02 74.187C121.882 73.5935 121.809 72.9751 121.809 72.3397C121.809 67.8421 125.455 64.1961 129.953 64.1961C134.45 64.1961 138.096 67.8421 138.096 72.3397C138.096 72.971 138.024 73.5856 137.889 74.1756L148.811 77.1023L149.865 73.1693L137.799 69.9361L148.799 66.9885L147.745 63.0555L135.679 66.2885L143.732 58.2359L140.853 55.3567L132.143 64.067L135.093 53.0539Z" fill="#FFFCF2"/>
<path d="M137.876 74.2217C137.539 75.6473 136.827 76.928 135.851 77.9541L143.764 85.8672L146.643 82.988L137.876 74.2217Z" fill="#FFFCF2"/>
<path d="M135.771 78.0371C134.782 79.0468 133.533 79.8003 132.132 80.1886L135.011 90.9346L138.944 89.8807L135.771 78.0371Z" fill="#FFFCF2"/>
<path d="M131.985 80.2274C131.335 80.3945 130.654 80.4833 129.952 80.4833C129.199 80.4833 128.471 80.3813 127.779 80.1904L124.897 90.9462L128.83 92L131.985 80.2274Z" fill="#FFFCF2"/>
<path d="M127.641 80.1511C126.262 79.7435 125.035 78.9804 124.066 77.9678L116.134 85.9003L119.013 88.7795L127.641 80.1511Z" fill="#FFFCF2"/>
<path d="M123.999 77.8971C123.047 76.8781 122.354 75.6145 122.024 74.2109L111.065 77.1472L112.119 81.0802L123.999 77.8971Z" fill="#FFFCF2"/>
</svg>
